<svg height="512" viewBox="0 0 58 58" width="512" xmlns="http://www.w3.org/2000/svg"><g id="Page-1" fill="none" fill-rule="evenodd"><g id="006---Edit-Email" fill-rule="nonzero" transform="translate(0 -1)"><path id="Shape" d="m57.06 20.83c-.5535499-.5325674-1.2918557-.8300402-2.06-.83h-52c-.76814427-.0000402-1.50645005.2974326-2.06.83-.60223672.5605969-.94299064 1.3472309-.94 2.17v33c.0071207 1.6538958 1.34610422 2.9928793 3 3h52c1.6538958-.0071207 2.9928793-1.3461042 3-3v-33c.0029906-.8227691-.3377633-1.6094031-.94-2.17z" fill="#f3d55b"/><path id="Shape" d="m23.45 39.75-22.38 18.54c-.67876645-.5667702-1.07076468-1.4057196-1.07-2.29v-33c-.00299064-.8227691.33776328-1.6094031.94-2.17z" fill="#f0c419"/><path id="Shape" d="m56.93 58.29c-.5384372.4586387-1.2227066.7103648-1.93.71h-52c-.70729341.0003648-1.3915628-.2513613-1.93-.71l22.38-18.54 2.55 2.14c1.7261915 1.4800229 4.2738085 1.4800229 6 0l2.55-2.14z" fill="#f29c1f"/><path id="Shape" d="m58 23v33c.0007647.8842804-.3912335 1.7232298-1.07 2.29l-22.38-18.54 22.51-18.92c.6022367.5605969.9429906 1.3472309.94 2.17z" fill="#f0c419"/><path id="Shape" d="m46 25h-34c-.5522847 0-1-.4477153-1-1s.4477153-1 1-1h34c.5522847 0 1 .4477153 1 1s-.4477153 1-1 1z" fill="#f9eab0"/><path id="Shape" d="m4 49c-.55228475 0-1-.4477153-1-1v-16c0-.5522847.44771525-1 1-1s1 .4477153 1 1v16c0 .5522847-.44771525 1-1 1z" fill="#f3d55b"/><path id="Shape" d="m54 49c-.5522847 0-1-.4477153-1-1v-16c0-.5522847.4477153-1 1-1s1 .4477153 1 1v16c0 .5522847-.4477153 1-1 1z" fill="#f3d55b"/><path id="Shape" d="m30.95 33.11-5.11 1.27c-.3427424.0851066-.7050205-.0155488-.9547358-.2652642-.2497154-.2497153-.3503708-.6119934-.2652642-.9547358l1.27-5.11z" fill="#3f5c6c"/><path id="Shape" d="m35.49 31.99-4.54 1.12-5.06-5.06 1.12-4.54z" fill="#fac176"/><path id="Shape" d="m57.41 10.07-3.53 3.54-2.83 2.83-15.56 15.55-8.48-8.48 15.56-15.55 2.83-2.83 3.53-3.54c.3732815-.37902819.8830212-.5924538 1.415-.5924538s1.0417185.21342561 1.415.5924538l5.65 5.65c.3790282.37328148.5924538.88302121.5924538 1.415s-.2134256 1.04171852-.5924538 1.415z" fill="#e64c3c"/><path id="Rectangle-path" d="m30.151 19.096h21.998v5.996h-21.998z" fill="#c03a2b" transform="matrix(.707 -.707 .707 .707 -3.575 35.554)"/><path id="Rectangle-path" d="m46.225 4.789h4.002v11.993h-4.002z" fill="#95a5a5" transform="matrix(.707 -.707 .707 .707 6.499 37.26)"/><path id="Shape" d="m57.41 10.07-3.53 3.54-8.48-8.48 3.53-3.54c.3732815-.37902819.8830212-.5924538 1.415-.5924538s1.0417185.21342561 1.415.5924538l5.65 5.65c.3790282.37328148.5924538.88302121.5924538 1.415s-.2134256 1.04171852-.5924538 1.415z" fill="#fb7b76"/></g></g></svg>