<svg id="Capa_1" enable-background="new 0 0 512 512" height="512" viewBox="0 0 512 512" width="512" xmlns="http://www.w3.org/2000/svg"><g><g><path d="m72 397h-18.5c-29.5 0-53.5-24-53.5-53.5s24-53.5 53.5-53.5h11.5v30h-11.5c-12.958 0-23.5 10.542-23.5 23.5s10.542 23.5 23.5 23.5h18.5z" fill="#6354b1"/></g><g><path d="m74 192h-20.5c-29.5 0-53.5-24-53.5-53.5s24-53.5 53.5-53.5h11.5v30h-11.5c-12.958 0-23.5 10.542-23.5 23.5s10.542 23.5 23.5 23.5h20.5z" fill="#6354b1"/></g><path d="m454 424h58v-127l-28-10-30 10-11 62z" fill="#ffdd46"/><path d="m454 297h58v-127l-28-6-30 6-14 62z" fill="#ffb54c"/><path d="m454 170h58v-127h-58l-11 64z" fill="#00dc7b"/><path d="m65 5h389v434h-389z" fill="#e2e1f4"/><path d="m65 439 .008 15.109c.211 29.164 24.11 52.891 53.274 52.891h335.718v-68z" fill="#aca6d6"/><path d="m260 439h194v68h-194z" fill="#6354b1"/><g><path d="m61 290h75v30h-75z" fill="#6354b1"/></g><g><path d="m58 85h78v30h-78z" fill="#6354b1"/></g><path d="m260 5h194v434h-194z" fill="#aca6d6"/><g><path d="m259.99 118c-23.196 0-42 18.804-42 42s18.804 42 42 42h.01l8-42-8-42c-.003 0-.007 0-.01 0z" fill="#6354b1"/><path d="m301.99 160c0-23.193-18.799-41.994-41.99-42v84c23.191-.006 41.99-18.807 41.99-42z" fill="#463b84"/><path d="m259.99 232c-36.11 0-65.46 29.01-65.99 65h66l9-31-9-34c-.003 0-.007 0-.01 0z" fill="#6354b1"/><path d="m260 232v65h65.98c-.53-35.987-29.875-64.994-65.98-65z" fill="#463b84"/></g></g></svg>